<svg xmlns="http://www.w3.org/2000/svg" xmlns:xlink="http://www.w3.org/1999/xlink" xmlns:lucid="lucid" width="1702" height="1254.08"><g transform="translate(-19 1153.0755468749999)" lucid:page-tab-id="VjMd39PQffTe"><path d="M0-1200h1760V160H0z" fill="#fff"/><path d="M20-1136.08a16 16 0 0 1 16-16h24V100H36a16 16 0 0 1-16-16z" stroke="#000" stroke-width="2" fill="#fff"/><path d="M60-1152.08h1644a16 16 0 0 1 16 16V-580H60zM60-580h1660V84a16 16 0 0 1-16 16H60z" stroke="#000" stroke-width="2" fill="none"/><use xlink:href="#a" transform="matrix(-1.8369701987210297e-16,-1,1,-1.8369701987210297e-16,20.000000000000114,100) translate(513.40673828125 27.0478515625)"/><use xlink:href="#b" transform="matrix(-1.8369701987210297e-16,-1,1,-1.8369701987210297e-16,20.000000000000114,100) translate(637.58740234375 27.0478515625)"/><use xlink:href="#c" transform="matrix(-1.8369701987210297e-16,-1,1,-1.8369701987210297e-16,20.000000000000114,100) translate(664.16552734375 27.0478515625)"/><use xlink:href="#d" transform="matrix(-1.8369701987210297e-16,-1,1,-1.8369701987210297e-16,60,-580) translate(249.708984375 26.5478515625)"/><use xlink:href="#e" transform="matrix(-1.8369701987210297e-16,-1,1,-1.8369701987210297e-16,60.00000000000006,100) translate(298.29150390625 27.0478515625)"/><path d="M169.77-866.04c0 16.57-13.43 30-30 30s-30-13.43-30-30 13.43-30 30-30 30 13.43 30 30z" stroke="#000" stroke-width="2" fill="#fff"/><use xlink:href="#f" transform="matrix(1,0,0,1,109.77248965000285,-834.0377734374999) translate(-1.359375 17.4375)"/><use xlink:href="#g" transform="matrix(1,0,0,1,109.77248965000285,-834.0377734374999) translate(19.2421875 43.572656249999994)"/><use xlink:href="#h" transform="matrix(1,0,0,1,109.77248965000285,-834.0377734374999) translate(0.71044921875 69.70781249999999)"/><path d="M171.27-866.04h16.5a12 12 0 0 0 12-12v-66a12 12 0 0 1 12-12h.62" stroke="#333" fill="none"/><path d="M171.3-865.56h-.56l.03-.45v-.5h.52z" stroke="#333" stroke-width=".05" fill="#333"/><path d="M227.15-956.04l-14.26 4.64v-9.27z" stroke="#333" fill="#333"/><path d="M229.77-1008.04a8 8 0 0 1 8-8h144a8 8 0 0 1 8 8v104a8 8 0 0 1-8 8h-144a8 8 0 0 1-8-8z" stroke="#000" stroke-width="2" fill="#fff"/><use xlink:href="#i" transform="matrix(1,0,0,1,229.77248965000285,-1016.0377734374999) translate(38.788691406249995 39.9375)"/><use xlink:href="#j" transform="matrix(1,0,0,1,229.77248965000285,-1016.0377734374999) translate(110.42833984375 39.9375)"/><use xlink:href="#k" transform="matrix(1,0,0,1,229.77248965000285,-1016.0377734374999) translate(7.587519531250004 66.07265625)"/><use xlink:href="#b" transform="matrix(1,0,0,1,229.77248965000285,-1016.0377734374999) translate(95.59240234375001 66.07265625)"/><use xlink:href="#l" transform="matrix(1,0,0,1,229.77248965000285,-1016.0377734374999) translate(122.17052734375001 66.07265625)"/><use xlink:href="#m" transform="matrix(1,0,0,1,229.77248965000285,-1016.0377734374999) translate(31.515742187499995 92.20781249999999)"/><path d="M391.27-956.04h51.35" stroke="#333" fill="none"/><path d="M391.3-955.56h-.53v-.95h.52z" stroke="#333" stroke-width=".05" fill="#333"/><path d="M457.38-956.04l-14.26 4.64v-9.27z" stroke="#333" fill="#333"/><path d="M460-1008.04a8 8 0 0 1 8-8h144a8 8 0 0 1 8 8v104a8 8 0 0 1-8 8H468a8 8 0 0 1-8-8z" stroke="#000" stroke-width="2" fill="#fff"/><use xlink:href="#n" transform="matrix(1,0,0,1,460,-1016.0377734374999) translate(17.980585937500003 39.9375)"/><use xlink:href="#o" transform="matrix(1,0,0,1,460,-1016.0377734374999) translate(63.4551953125 39.9375)"/><use xlink:href="#p" transform="matrix(1,0,0,1,460,-1016.0377734374999) translate(78.6251171875 39.9375)"/><use xlink:href="#q" transform="matrix(1,0,0,1,460,-1016.0377734374999) translate(25.095332031250003 66.07265625)"/><use xlink:href="#r" transform="matrix(1,0,0,1,460,-1016.0377734374999) translate(51.97228515625 66.07265625)"/><use xlink:href="#s" transform="matrix(1,0,0,1,460,-1016.0377734374999) translate(38.880976562499995 92.20781249999999)"/><path d="M621.5-956.04h61.12" stroke="#333" fill="none"/><path d="M621.5-955.56h-.5v-.95h.5z" stroke="#333" stroke-width=".05" fill="#333"/><path d="M697.38-956.04l-14.26 4.64v-9.27z" stroke="#333" fill="#333"/><path d="M700-1008.04a8 8 0 0 1 8-8h144a8 8 0 0 1 8 8v104a8 8 0 0 1-8 8H708a8 8 0 0 1-8-8z" stroke="#000" stroke-width="2" fill="#fff"/><use xlink:href="#t" transform="matrix(1,0,0,1,700,-1016.0377734374999) translate(22.317988281250003 39.9375)"/><use xlink:href="#u" transform="matrix(1,0,0,1,700,-1016.0377734374999) translate(80.79162109375 39.9375)"/><use xlink:href="#v" transform="matrix(1,0,0,1,700,-1016.0377734374999) translate(96.64708984375 39.9375)"/><use xlink:href="#w" transform="matrix(1,0,0,1,700,-1016.0377734374999) translate(127.19787109375 39.9375)"/><use xlink:href="#x" transform="matrix(1,0,0,1,700,-1016.0377734374999) translate(36.644160156249995 66.07265625)"/><use xlink:href="#y" transform="matrix(1,0,0,1,700,-1016.0377734374999) translate(102.23693359375 66.07265625)"/><use xlink:href="#z" transform="matrix(1,0,0,1,700,-1016.0377734374999) translate(43.723749999999995 92.20781249999999)"/><path d="M861.5-955.85h38.2a.1.1 0 0 0 .1-.1.1.1 0 0 1 .1-.1h22.3" stroke="#333" fill="none"/><path d="M861.5-955.38h-.5v-.95h.5z" stroke="#333" stroke-width=".05" fill="#333"/><path d="M936.97-956.04l-14.27 4.64v-9.27z" stroke="#333" fill="#333"/><path d="M160-240c0 16.57-13.43 30-30 30s-30-13.43-30-30 13.43-30 30-30 30 13.43 30 30z" stroke="#000" stroke-width="2" fill="#fff"/><use xlink:href="#f" transform="matrix(1,0,0,1,100,-208) translate(-1.359375 17.4375)"/><use xlink:href="#A" transform="matrix(1,0,0,1,100,-208) translate(-7.98193359375 43.572656249999994)"/><path d="M161.5-240h71.34" stroke="#333" fill="none"/><path d="M161.5-239.53h-.54l.04-.45-.02-.5h.53z" stroke="#333" stroke-width=".05" fill="#333"/><path d="M247.6-240l-14.26 4.63v-9.26z" stroke="#333" fill="#333"/><path d="M250.23-292a8 8 0 0 1 8-8h144a8 8 0 0 1 8 8v104a8 8 0 0 1-8 8h-144a8 8 0 0 1-8-8z" stroke="#000" stroke-width="2" fill="#fff"/><use xlink:href="#B" transform="matrix(1,0,0,1,250.22751034999715,-300) translate(7.631464843750004 54.9375)"/><use xlink:href="#p" transform="matrix(1,0,0,1,250.22751034999715,-300) translate(88.97423828125001 54.9375)"/><use xlink:href="#b" transform="matrix(1,0,0,1,250.22751034999715,-300) translate(36.45080078125 81.07265625)"/><use xlink:href="#C" transform="matrix(1,0,0,1,250.22751034999715,-300) translate(63.02892578125 81.07265625)"/><path d="M411.73-240h53.2" stroke="#333" fill="none"/><path d="M411.74-239.53h-.5v-.94h.5z" stroke="#333" stroke-width=".05" fill="#333"/><path d="M479.7-240l-14.27 4.63v-9.26z" stroke="#333" fill="#333"/><path d="M482.73-240l37.5-37.5 37.5 37.5-37.5 37.5z" stroke="#000" stroke-width="2" fill="#fff"/><path d="M505.23-255l30 30m-30 0l30-30" stroke="#000" stroke-width="2" fill="none"/><path d="M940-956.04l37.5-37.5 37.5 37.5-37.5 37.5z" stroke="#000" stroke-width="2" fill="#fff"/><path d="M962.5-971.04l30 30m-30 0l30-30" stroke="#000" stroke-width="2" fill="none"/><path d="M1020-977a8 8 0 0 1 8-8h105.9a8 8 0 0 1 8 8v41.92a8 8 0 0 1-8 8H1028a8 8 0 0 1-8-8z" fill="none"/><use xlink:href="#D" transform="matrix(1,0,0,1,1025,-979.9999999999999) translate(0 17.480273437500003)"/><use xlink:href="#E" transform="matrix(1,0,0,1,1025,-979.9999999999999) translate(0 43.6154296875)"/><path d="M977.5-995.45V-1058a12 12 0 0 1 12-12h93.12" stroke="#333" fill="none"/><path d="M977.98-994.48l-.48-.47-.48.47v-1h.96z" stroke="#333" stroke-width=".05" fill="#333"/><path d="M1097.38-1070l-14.27 4.63.02-9.27z" stroke="#333" fill="#333"/><use xlink:href="#F" transform="matrix(1,0,0,1,1020.6091431518478,-1095.779296875) translate(0.005000000000000782 17.4375)"/><path d="M977.5-916.62V-852a12 12 0 0 0 12 12h93.12" stroke="#333" fill="none"/><path d="M977.98-916.6H977v-1l.48.48.48-.48z" stroke="#333" stroke-width=".05" fill="#333"/><path d="M1097.38-840l-14.26 4.63v-9.26z" stroke="#333" fill="#333"/><use xlink:href="#G" transform="matrix(1,0,0,1,1016.4640104224229,-836) translate(0.004999999999999005 17.4375)"/><path d="M1100-892a8 8 0 0 1 8-8h144a8 8 0 0 1 8 8v104a8 8 0 0 1-8 8h-144a8 8 0 0 1-8-8z" stroke="#000" stroke-width="2" fill="#fff"/><use xlink:href="#H" transform="matrix(1,0,0,1,1100,-900) translate(42.049433593749995 54.9375)"/><use xlink:href="#z" transform="matrix(1,0,0,1,1100,-900) translate(43.723749999999995 81.07265625)"/><path d="M1160-1070c0 16.57-13.43 30-30 30s-30-13.43-30-30 13.43-30 30-30 30 13.43 30 30z" stroke="#000" stroke-width="2" fill="#fff"/><path d="M1157-1070c0 14.9-12.1 27-27 27s-27-12.1-27-27 12.1-27 27-27 27 12.1 27 27z" stroke="#000" stroke-width="2" fill="#fff"/><path d="M1150-1070c0 11.05-8.95 20-20 20s-20-8.95-20-20 8.95-20 20-20 20 8.95 20 20zm0 0h-4m1.32 10l-3.46-2m-3.86 9.32l-2-3.46m-8 6.14v-4m-10 1.32l2-3.46m-9.32-3.86l3.46-2m-6.14-8h4m-1.32-10l3.46 2m3.86-9.32l2 3.46m8-6.14v4m10-1.32l-2 3.46m9.32 3.86l-3.46 2m-13.86 8v-12m0 12h7" stroke="#000" stroke-width="2" fill="#fff"/><use xlink:href="#I" transform="matrix(1,0,0,1,1100,-1038) translate(3.17578125 17.4375)"/><use xlink:href="#y" transform="matrix(1,0,0,1,1100,-1038) translate(35.6953125 17.4375)"/><use xlink:href="#z" transform="matrix(1,0,0,1,1100,-1038) translate(-6.28125 43.572656249999994)"/><path d="M1161.5-1070h101.12" stroke="#333" fill="none"/><path d="M1161.5-1069.53h-.54l.04-.45-.02-.5h.53z" stroke="#333" stroke-width=".05" fill="#333"/><path d="M1277.38-1070l-14.26 4.63v-9.27z" stroke="#333" fill="#333"/><path d="M1280-1122a8 8 0 0 1 8-8h144a8 8 0 0 1 8 8v104a8 8 0 0 1-8 8h-144a8 8 0 0 1-8-8z" stroke="#000" stroke-width="2" fill="#fff"/><use xlink:href="#J" transform="matrix(1,0,0,1,1280,-1130) translate(29.481074218749995 54.9375)"/><use xlink:href="#y" transform="matrix(1,0,0,1,1280,-1130) translate(109.40001953125 54.9375)"/><use xlink:href="#z" transform="matrix(1,0,0,1,1280,-1130) translate(43.723749999999995 81.07265625)"/><path d="M1261.5-840h60.7" stroke="#333" fill="none"/><path d="M1261.5-839.52h-.5v-.96h.5z" stroke="#333" stroke-width=".05" fill="#333"/><path d="M1336.97-840l-14.27 4.63v-9.26z" stroke="#333" fill="#333"/><path d="M1340-840l37.5-37.5L1415-840l-37.5 37.5z" stroke="#000" stroke-width="2" fill="#fff"/><path d="M1362.5-855l30 30m-30 0l30-30" stroke="#000" stroke-width="2" fill="none"/><path d="M1377.5-800.6V-662a12 12 0 0 1-12 12H552a12 12 0 0 1-12-12v-216.65" stroke="#333" fill="none"/><path d="M1377.97-800.57h-.94v-1l.47.48.47-.46z" stroke="#333" stroke-width=".05" fill="#333"/><path d="M540-893.42l4.63 14.27h-9.26z" stroke="#333" fill="#333"/><use xlink:href="#K" transform="matrix(1,0,0,1,1385.5,-739.1406736363708) translate(0.004999999999999005 17.4375)"/><path d="M1420-860.96a8 8 0 0 1 8-8h79.88a8 8 0 0 1 8 8v41.92a8 8 0 0 1-8 8H1428a8 8 0 0 1-8-8z" fill="none"/><use xlink:href="#L" transform="matrix(1,0,0,1,1425,-863.9622265625) translate(0 17.480273437500003)"/><use xlink:href="#M" transform="matrix(1,0,0,1,1425,-863.9622265625) translate(0 43.6154296875)"/><path d="M1377.5-879.4v-57.14a12 12 0 0 1 12-12h114.12" stroke="#333" fill="none"/><path d="M1377.97-878.44l-.47-.47-.47.46v-1h.94z" stroke="#333" stroke-width=".05" fill="#333"/><path d="M1518.38-948.54l-14.26 4.64v-9.27z" stroke="#333" fill="#333"/><use xlink:href="#G" transform="matrix(1,0,0,1,1427.7941418612447,-944.5377734374999) translate(0.004999999999999005 17.4375)"/><path d="M1580-948.54c0 16.57-13.43 30-30 30s-30-13.43-30-30 13.43-30 30-30 30 13.43 30 30z" stroke="#000" stroke-width="6" fill="#fff"/><use xlink:href="#N" transform="matrix(1,0,0,1,1520,-916.5377734374999) translate(14.62353515625 17.4375)"/><path d="M520.23-279.4v-91.1a12 12 0 0 1 12-12H662.2" stroke="#333" fill="none"/><path d="M520.7-278.44l-.47-.47-.48.46v-1h.95z" stroke="#333" stroke-width=".05" fill="#333"/><path d="M676.97-382.5l-14.27 4.63v-9.26z" stroke="#333" fill="#333"/><use xlink:href="#O" transform="matrix(1,0,0,1,545.3773454065018,-408.279296875) translate(0.005000000000002558 17.4375)"/><path d="M520.23-200.6v106.1a12 12 0 0 0 12 12H662.2" stroke="#333" fill="none"/><path d="M520.23-201.1l.47-.46v1h-.95v-1z" stroke="#333" stroke-width=".05" fill="#333"/><path d="M676.97-82.5l-14.27 4.64v-9.28z" stroke="#333" fill="#333"/><use xlink:href="#P" transform="matrix(1,0,0,1,560.2718516223891,-78.5) translate(0.004999999999999005 17.4375)"/><path d="M580-262a8 8 0 0 1 8-8h89.05a8 8 0 0 1 8 8v41.92a8 8 0 0 1-8 8H588a8 8 0 0 1-8-8z" fill="none"/><use xlink:href="#Q" transform="matrix(1,0,0,1,585,-265) translate(0 17.480273437500003)"/><use xlink:href="#R" transform="matrix(1,0,0,1,585,-265) translate(0 43.6154296875)"/><use xlink:href="#S" transform="matrix(1,0,0,1,585,-265) translate(26.4990234375 43.6154296875)"/><path d="M680-382.5l37.5-37.5 37.5 37.5-37.5 37.5z" stroke="#000" stroke-width="2" fill="#fff"/><path d="M702.5-397.5l30 30m-30 0l30-30" stroke="#000" stroke-width="2" fill="none"/><path d="M717.5-343.1v29.02a12 12 0 0 0 12 12h173.12" stroke="#333" fill="none"/><path d="M717.98-343.07H717v-1l.48.48.48-.46z" stroke="#333" stroke-width=".05" fill="#333"/><path d="M917.38-302.08l-14.26 4.64v-9.27z" stroke="#333" fill="#333"/><use xlink:href="#T" transform="matrix(1,0,0,1,820.8907869975975,-298.0755468750001) translate(0.004999999999999005 17.4375)"/><use xlink:href="#U" transform="matrix(1,0,0,1,820.8907869975975,-298.0755468750001) translate(4.008417968749999 43.572656249999994)"/><path d="M920-354.08a8 8 0 0 1 8-8h144a8 8 0 0 1 8 8v104a8 8 0 0 1-8 8H928a8 8 0 0 1-8-8z" stroke="#000" stroke-width="2" fill="#fff"/><use xlink:href="#V" transform="matrix(1,0,0,1,920,-362.07554687500004) translate(10.219843750000004 54.9375)"/><use xlink:href="#W" transform="matrix(1,0,0,1,920,-362.07554687500004) translate(89.25988281250001 54.9375)"/><use xlink:href="#X" transform="matrix(1,0,0,1,920,-362.07554687500004) translate(52.37658203125 81.07265625)"/><path d="M717.5-421.9V-448a12 12 0 0 1 12-12h173.12" stroke="#333" fill="none"/><path d="M717.98-420.94l-.48-.47-.48.46v-1h.96z" stroke="#333" stroke-width=".05" fill="#333"/><path d="M917.38-460l-14.26 4.63v-9.26z" stroke="#333" fill="#333"/><use xlink:href="#Y" transform="matrix(1,0,0,1,830.4673495734221,-516.5497080406242) translate(20.461542968750003 17.4375)"/><use xlink:href="#Z" transform="matrix(1,0,0,1,830.4673495734221,-516.5497080406242) translate(0.005000000000002558 43.572656249999994)"/><path d="M920-512a8 8 0 0 1 8-8h144a8 8 0 0 1 8 8v104a8 8 0 0 1-8 8H928a8 8 0 0 1-8-8z" stroke="#000" stroke-width="2" fill="#fff"/><use xlink:href="#aa" transform="matrix(1,0,0,1,920,-520) translate(12.742304687500004 54.9375)"/><use xlink:href="#ab" transform="matrix(1,0,0,1,920,-520) translate(73.43957031250001 54.9375)"/><use xlink:href="#g" transform="matrix(1,0,0,1,920,-520) translate(125.75207031250001 54.9375)"/><use xlink:href="#ac" transform="matrix(1,0,0,1,920,-520) translate(26.839960937499995 81.07265625)"/><use xlink:href="#ad" transform="matrix(1,0,0,1,920,-520) translate(101.9337109375 81.07265625)"/><path d="M760-403.46a8 8 0 0 1 8-8h69.46a8 8 0 0 1 8 8v41.92a8 8 0 0 1-8 8H768a8 8 0 0 1-8-8z" fill="none"/><use xlink:href="#ae" transform="matrix(1,0,0,1,765,-406.4622265625) translate(0 17.480273437500003)"/><use xlink:href="#af" transform="matrix(1,0,0,1,765,-406.4622265625) translate(53.9296875 17.480273437500003)"/><use xlink:href="#ag" transform="matrix(1,0,0,1,765,-406.4622265625) translate(0 43.6154296875)"/><path d="M680-82.5l37.5-37.5L755-82.5 717.5-45z" stroke="#000" stroke-width="2" fill="#fff"/><path d="M702.5-97.5l30 30m-30 0l30-30" stroke="#000" stroke-width="2" fill="none"/><path d="M760-103.46a8 8 0 0 1 8-8h88.43a8 8 0 0 1 8 8v41.92a8 8 0 0 1-8 8H768a8 8 0 0 1-8-8z" fill="none"/><g><use xlink:href="#ah" transform="matrix(1,0,0,1,765,-106.46222656249999) translate(0 17.480273437500003)"/><use xlink:href="#ai" transform="matrix(1,0,0,1,765,-106.46222656249999) translate(0 43.6154296875)"/></g><path d="M717.5-43.1V3a12 12 0 0 0 12 12h173.12" stroke="#333" fill="none"/><path d="M717.98-43.07H717v-1l.48.48.48-.46z" stroke="#333" stroke-width=".05" fill="#333"/><path d="M917.38 15l-14.26 4.64v-9.28z" stroke="#333" fill="#333"/><g><use xlink:href="#aj" transform="matrix(1,0,0,1,764.0923562290702,-10.779296875) translate(0.004999999999999005 17.4375)"/></g><path d="M920-37a8 8 0 0 1 8-8h144a8 8 0 0 1 8 8V67a8 8 0 0 1-8 8H928a8 8 0 0 1-8-8z" stroke="#000" stroke-width="2" fill="#fff"/><g><use xlink:href="#ak" transform="matrix(1,0,0,1,920,-45) translate(16.385371093750003 66.1875)"/><use xlink:href="#al" transform="matrix(1,0,0,1,920,-45) translate(83.09435546875001 66.1875)"/></g><path d="M717.5-121.9V-148a12 12 0 0 1 12-12h173.12" stroke="#333" fill="none"/><path d="M717.98-120.94l-.48-.47-.48.46v-1h.96z" stroke="#333" stroke-width=".05" fill="#333"/><path d="M917.38-160l-14.26 4.63v-9.26z" stroke="#333" fill="#333"/><g><use xlink:href="#F" transform="matrix(1,0,0,1,768.0971208174955,-185.779296875) translate(0.005000000000000782 17.4375)"/></g><path d="M920-212a8 8 0 0 1 8-8h144a8 8 0 0 1 8 8v104a8 8 0 0 1-8 8H928a8 8 0 0 1-8-8z" stroke="#000" stroke-width="2" fill="#fff"/><g><use xlink:href="#ak" transform="matrix(1,0,0,1,920,-220) translate(8.607050781250004 39.9375)"/><use xlink:href="#am" transform="matrix(1,0,0,1,920,-220) translate(75.31603515625001 39.9375)"/><use xlink:href="#w" transform="matrix(1,0,0,1,920,-220) translate(140.90880859375 39.9375)"/><use xlink:href="#an" transform="matrix(1,0,0,1,920,-220) translate(36.340937499999995 66.07265625)"/><use xlink:href="#z" transform="matrix(1,0,0,1,920,-220) translate(43.723749999999995 92.20781249999999)"/></g><path d="M1081.5-460h66.5a12 12 0 0 1 12 12v206a12 12 0 0 0 12 12h50.62" stroke="#333" fill="none"/><path d="M1081.5-459.52h-.5v-.96h.5z" stroke="#333" stroke-width=".05" fill="#333"/><path d="M1237.38-230l-14.27 4.63.02-9.26z" stroke="#333" fill="#333"/><path d="M1300-230c0 16.57-13.43 30-30 30s-30-13.43-30-30 13.43-30 30-30 30 13.43 30 30z" stroke="#000" stroke-width="2" fill="#fff"/><path d="M1297-230c0 14.9-12.1 27-27 27s-27-12.1-27-27 12.1-27 27-27 27 12.1 27 27z" stroke="#000" stroke-width="2" fill="#fff"/><path d="M1290-230c0 11.05-8.95 20-20 20s-20-8.95-20-20 8.95-20 20-20 20 8.95 20 20zm0 0h-4m1.32 10l-3.46-2m-3.86 9.32l-2-3.46m-8 6.14v-4m-10 1.32l2-3.46m-9.32-3.86l3.46-2m-6.14-8h4m-1.32-10l3.46 2m3.86-9.32l2 3.46m8-6.14v4m10-1.32l-2 3.46m9.32 3.86l-3.46 2m-13.86 8v-12m0 12h7" stroke="#000" stroke-width="2" fill="#fff"/><g><use xlink:href="#ao" transform="matrix(1,0,0,1,1240,-198) translate(-5.90771484375 17.4375)"/><use xlink:href="#ap" transform="matrix(1,0,0,1,1240,-198) translate(16.79443359375 43.572656249999994)"/><use xlink:href="#aq" transform="matrix(1,0,0,1,1240,-198) translate(-0.26513671875 69.70781249999999)"/><use xlink:href="#ar" transform="matrix(1,0,0,1,1240,-198) translate(11.578125 95.84296875)"/><use xlink:href="#as" transform="matrix(1,0,0,1,1240,-198) translate(4.04150390625 121.97812499999999)"/><use xlink:href="#at" transform="matrix(1,0,0,1,1240,-198) translate(-6.6416015625 148.11328125)"/></g><path d="M1081.5-302.08h66.5a12 12 0 0 1 12 12V-242a12 12 0 0 0 12 12h50.62" stroke="#333" fill="none"/><path d="M1081.5-301.6h-.5v-.95h.5z" stroke="#333" stroke-width=".05" fill="#333"/><path d="M1237.38-230l-14.27 4.63.02-9.26z" stroke="#333" fill="#333"/><path d="M1081.5-160h66.5a12 12 0 0 0 12-12v-46a12 12 0 0 1 12-12h50.62" stroke="#333" fill="none"/><path d="M1081.5-159.53h-.5v-.94h.5z" stroke="#333" stroke-width=".05" fill="#333"/><path d="M1237.38-230l-14.27 4.63.02-9.26z" stroke="#333" fill="#333"/><path d="M1081.5 15h67a12 12 0 0 0 12-12v-221a12 12 0 0 1 12-12h50.12" stroke="#333" fill="none"/><path d="M1081.5 15.47h-.5v-.95h.5z" stroke="#333" stroke-width=".05" fill="#333"/><path d="M1237.38-230l-14.27 4.63.02-9.26z" stroke="#333" fill="#333"/><path d="M1301.5-230h61.12" stroke="#333" fill="none"/><path d="M1301.5-229.53h-.54l.04-.45-.02-.5h.53z" stroke="#333" stroke-width=".05" fill="#333"/><path d="M1377.38-230l-14.26 4.63v-9.26z" stroke="#333" fill="#333"/><path d="M1380-282a8 8 0 0 1 8-8h144a8 8 0 0 1 8 8v104a8 8 0 0 1-8 8h-144a8 8 0 0 1-8-8z" stroke="#000" stroke-width="2" fill="#fff"/><g><use xlink:href="#au" transform="matrix(1,0,0,1,1380,-290) translate(10.760371093750004 66.1875)"/><use xlink:href="#z" transform="matrix(1,0,0,1,1380,-290) translate(76.68712890625001 66.1875)"/></g><path d="M1541.5-230h62.12" stroke="#333" fill="none"/><path d="M1541.5-229.53h-.5v-.94h.5z" stroke="#333" stroke-width=".05" fill="#333"/><path d="M1618.38-230l-14.26 4.63v-9.26z" stroke="#333" fill="#333"/><path d="M1680-230c0 16.57-13.43 30-30 30s-30-13.43-30-30 13.43-30 30-30 30 13.43 30 30z" stroke="#000" stroke-width="6" fill="#fff"/><g><use xlink:href="#av" transform="matrix(1,0,0,1,1620,-198) translate(14.38623046875 17.4375)"/></g><path d="M1441.5-1070h96.5a12 12 0 0 1 12 12v63.08" stroke="#333" fill="none"/><path d="M1441.5-1069.53h-.5v-.94h.5z" stroke="#333" stroke-width=".05" fill="#333"/><path d="M1550-980.16l-4.63-14.26h9.27z" stroke="#333" fill="#333"/><defs><path fill="#333" d="M52 0l541-1490h220L1361 0h-200l-149-416H398L254 0H52zm404-582h497c-103-290-145-390-251-756-108 377-145 460-246 756" id="aw"/><path fill="#333" d="M611 442c-248 0-391-105-460-228l146-94c47 65 117 165 314 165 178 0 307-82 307-266v-224h-17C863-141 792-18 576-18c-268 0-472-195-472-546 0-346 197-568 476-568 216 0 288 133 326 193h17v-179h175V29c0 289-215 413-487 413zm-5-620c203 0 314-146 314-390 0-237-108-403-314-403-213 0-319 180-319 403 0 230 109 390 319 390" id="ax"/><path fill="#333" d="M628 24c-324 0-524-230-524-574 0-343 198-582 503-582 237 0 487 146 487 559v75H286c9 234 145 362 343 362 132 0 231-58 273-172l174 48C1024-91 857 24 628 24zM287-650h624c-17-190-120-322-304-322-192 0-309 151-320 322" id="ay"/><path fill="#333" d="M338-670V0H158v-1118h173l1 207c72-158 192-221 342-221 226 0 378 139 378 422V0H872v-695c0-172-96-275-252-275-161 0-282 109-282 300" id="az"/><path fill="#333" d="M577 24c-279 0-473-224-473-580 0-354 195-576 474-576 218 0 287 134 324 193h14v-551h180V0H922v-173h-20C865-111 790 24 577 24zm27-161c203 0 314-172 314-421 0-247-108-413-314-413-212 0-317 181-317 413 0 235 108 421 317 421" id="aA"/><path fill="#333" d="M471 26C259 26 90-98 90-318c0-256 228-303 435-329 202-27 287-16 287-108 0-139-79-219-234-219-161 0-248 86-283 164l-173-57c86-203 278-265 451-265 150 0 419 46 419 395V0H815v-152h-12C765-73 660 26 471 26zm31-159c199 0 310-134 310-271v-155c-30 35-226 55-295 64-131 17-246 59-246 186 0 116 97 176 231 176" id="aB"/><path fill="#333" d="M158 0v-1118h175l1 205c55-151 181-225 313-225 147 0 245 90 285 228 53-141 190-228 352-228 194 0 352 125 352 384V0h-181v-749c0-161-105-225-225-225-151 0-243 103-243 244V0H807v-767c0-124-93-207-219-207-131 0-250 92-250 270V0H158" id="aC"/><path fill="#333" d="M598-1118v154H368v674c0 100 37 144 132 144 23 0 62-6 92-12L629-6c-37 13-88 20-134 20-193 0-307-107-307-290v-688H20v-154h168v-266h180v266h230" id="aD"/><path fill="#333" d="M613 24c-304 0-509-231-509-576 0-350 205-580 509-580 305 0 511 230 511 580 0 345-206 576-511 576zm0-161c226 0 329-195 329-415 0-222-103-419-329-419-223 0-326 196-326 419 0 220 103 415 326 415" id="aE"/><g id="a"><use transform="matrix(0.0087890625,0,0,0.0087890625,0,0)" xlink:href="#aw"/><use transform="matrix(0.0087890625,0,0,0.0087890625,12.4189453125,0)" xlink:href="#ax"/><use transform="matrix(0.0087890625,0,0,0.0087890625,23.4580078125,0)" xlink:href="#ay"/><use transform="matrix(0.0087890625,0,0,0.0087890625,33.9521484375,0)" xlink:href="#az"/><use transform="matrix(0.0087890625,0,0,0.0087890625,44.5869140625,0)" xlink:href="#aA"/><use transform="matrix(0.0087890625,0,0,0.0087890625,55.6083984375,0)" xlink:href="#aB"/><use transform="matrix(0.0087890625,0,0,0.0087890625,65.7158203125,0)" xlink:href="#aC"/><use transform="matrix(0.0087890625,0,0,0.0087890625,81.4833984375,0)" xlink:href="#ay"/><use transform="matrix(0.0087890625,0,0,0.0087890625,91.9775390625,0)" xlink:href="#az"/><use transform="matrix(0.0087890625,0,0,0.0087890625,102.6123046875,0)" xlink:href="#aD"/><use transform="matrix(0.0087890625,0,0,0.0087890625,108.3251953125,0)" xlink:href="#aE"/></g><g id="b"><use transform="matrix(0.0087890625,0,0,0.0087890625,0,0)" xlink:href="#aA"/><use transform="matrix(0.0087890625,0,0,0.0087890625,11.021484375,0)" xlink:href="#ay"/></g><path fill="#333" d="M783 20c-382 0-661-292-661-764 0-473 279-766 661-766 302 0 548 182 601 489h-190c-42-204-217-313-411-313-268 0-476 208-476 590 0 381 209 588 476 588 195 0 369-110 411-313h190c-52 303-296 489-601 489" id="aF"/><path fill="#333" d="M538 24C308 24 148-78 108-271l171-41c32 123 123 178 257 178 156 0 256-77 256-169 0-77-54-128-164-154l-186-44c-203-48-300-148-300-305 0-192 176-326 414-326 230 0 351 112 402 269l-163 42c-31-80-94-158-238-158-133 0-233 69-233 162 0 83 57 129 188 160l169 40c203 48 298 149 298 302 0 196-179 339-441 339" id="aG"/><path fill="#333" d="M537 14c-226 0-379-139-379-422v-710h180v695c0 172 97 275 253 275 160 0 281-109 281-300v-670h181V0H879v-209C806-46 684 14 537 14" id="aH"/><path fill="#333" d="M338-1490V0H158v-1490h180" id="aI"/><g id="c"><use transform="matrix(0.0087890625,0,0,0.0087890625,0,0)" xlink:href="#aF"/><use transform="matrix(0.0087890625,0,0,0.0087890625,13.1484375,0)" xlink:href="#aE"/><use transform="matrix(0.0087890625,0,0,0.0087890625,23.94140625,0)" xlink:href="#az"/><use transform="matrix(0.0087890625,0,0,0.0087890625,34.576171875,0)" xlink:href="#aG"/><use transform="matrix(0.0087890625,0,0,0.0087890625,44.0771484375,0)" xlink:href="#aH"/><use transform="matrix(0.0087890625,0,0,0.0087890625,54.720703125,0)" xlink:href="#aI"/><use transform="matrix(0.0087890625,0,0,0.0087890625,59.34375,0)" xlink:href="#aD"/><use transform="matrix(0.0087890625,0,0,0.0087890625,65.3203125,0)" xlink:href="#aB"/></g><path fill="#333" d="M180 0v-1490h510c348 0 508 209 508 474 0 266-160 477-507 477H370V0H180zm190-706h312c236 0 327-133 327-310 0-176-91-307-329-307H370v617" id="aJ"/><path fill="#333" d="M613 24c-304 0-509-231-509-576 0-350 205-580 509-580 216 0 392 114 453 309l-173 49c-33-115-133-197-280-197-223 0-326 196-326 419 0 220 103 415 326 415 150 0 252-85 285-206l172 49C1010-95 832 24 613 24" id="aK"/><path fill="#333" d="M158 0v-1118h180V0H158zm91-1301c-68 0-125-53-125-119s57-119 125-119c69 0 126 53 126 119s-57 119-126 119" id="aL"/><g id="d"><use transform="matrix(0.0087890625,0,0,0.0087890625,0,0)" xlink:href="#aJ"/><use transform="matrix(0.0087890625,0,0,0.0087890625,11.49609375,0)" xlink:href="#aB"/><use transform="matrix(0.0087890625,0,0,0.0087890625,21.603515625,0)" xlink:href="#aK"/><use transform="matrix(0.0087890625,0,0,0.0087890625,31.88671875,0)" xlink:href="#aL"/><use transform="matrix(0.0087890625,0,0,0.0087890625,36.24609375,0)" xlink:href="#ay"/><use transform="matrix(0.0087890625,0,0,0.0087890625,46.740234375,0)" xlink:href="#az"/><use transform="matrix(0.0087890625,0,0,0.0087890625,57.375,0)" xlink:href="#aD"/><use transform="matrix(0.0087890625,0,0,0.0087890625,63.087890625,0)" xlink:href="#ay"/></g><path fill="#333" d="M613 24c-304 0-509-231-509-576 0-350 205-580 509-580 305 0 511 230 511 580 0 345-206 576-511 576zm0-161c226 0 329-195 329-415 0-222-103-419-329-419-223 0-326 196-326 419 0 220 103 415 326 415zm-79-1127l140-294h201l-194 294H534" id="aM"/><g id="e"><use transform="matrix(0.0087890625,0,0,0.0087890625,0,0)" xlink:href="#aJ"/><use transform="matrix(0.0087890625,0,0,0.0087890625,11.49609375,0)" xlink:href="#aG"/><use transform="matrix(0.0087890625,0,0,0.0087890625,20.9970703125,0)" xlink:href="#aL"/><use transform="matrix(0.0087890625,0,0,0.0087890625,25.3564453125,0)" xlink:href="#aK"/><use transform="matrix(0.0087890625,0,0,0.0087890625,35.6396484375,0)" xlink:href="#aM"/><use transform="matrix(0.0087890625,0,0,0.0087890625,46.4326171875,0)" xlink:href="#aI"/><use transform="matrix(0.0087890625,0,0,0.0087890625,50.7919921875,0)" xlink:href="#aE"/><use transform="matrix(0.0087890625,0,0,0.0087890625,61.5849609375,0)" xlink:href="#ax"/><use transform="matrix(0.0087890625,0,0,0.0087890625,72.6240234375,0)" xlink:href="#aE"/></g><path fill="#333" d="M158 0v-1118h174v172h12c41-113 157-188 290-188 26 0 70 2 91 3v181c-11-2-60-10-108-10-161 0-279 109-279 260V0H158" id="aN"/><g id="f"><use transform="matrix(0.0087890625,0,0,0.0087890625,0,0)" xlink:href="#aJ"/><use transform="matrix(0.0087890625,0,0,0.0087890625,11.49609375,0)" xlink:href="#aN"/><use transform="matrix(0.0087890625,0,0,0.0087890625,17.9736328125,0)" xlink:href="#ay"/><use transform="matrix(0.0087890625,0,0,0.0087890625,28.4677734375,0)" xlink:href="#aK"/><use transform="matrix(0.0087890625,0,0,0.0087890625,38.7509765625,0)" xlink:href="#aL"/><use transform="matrix(0.0087890625,0,0,0.0087890625,43.1103515625,0)" xlink:href="#aG"/><use transform="matrix(0.0087890625,0,0,0.0087890625,52.611328125,0)" xlink:href="#aB"/></g><g id="g"><use transform="matrix(0.0087890625,0,0,0.0087890625,0,0)" xlink:href="#aA"/><use transform="matrix(0.0087890625,0,0,0.0087890625,11.021484375,0)" xlink:href="#ay"/></g><path fill="#333" d="M158 418v-1536h174v179h20c37-59 106-193 324-193 279 0 474 222 474 576 0 356-194 580-473 580-213 0-288-135-325-197h-14v591H158zm492-555c209 0 317-186 317-421 0-232-105-413-317-413-206 0-314 166-314 413 0 249 111 421 314 421" id="aO"/><g id="h"><use transform="matrix(0.0087890625,0,0,0.0087890625,0,0)" xlink:href="#aD"/><use transform="matrix(0.0087890625,0,0,0.0087890625,5.712890625,0)" xlink:href="#ay"/><use transform="matrix(0.0087890625,0,0,0.0087890625,16.20703125,0)" xlink:href="#aN"/><use transform="matrix(0.0087890625,0,0,0.0087890625,22.9833984375,0)" xlink:href="#aB"/><use transform="matrix(0.0087890625,0,0,0.0087890625,33.0908203125,0)" xlink:href="#aO"/><use transform="matrix(0.0087890625,0,0,0.0087890625,44.1123046875,0)" xlink:href="#aL"/><use transform="matrix(0.0087890625,0,0,0.0087890625,48.4716796875,0)" xlink:href="#aB"/></g><g id="i"><use transform="matrix(0.0087890625,0,0,0.0087890625,0,0)" xlink:href="#aJ"/><use transform="matrix(0.0087890625,0,0,0.0087890625,11.49609375,0)" xlink:href="#aN"/><use transform="matrix(0.0087890625,0,0,0.0087890625,17.9736328125,0)" xlink:href="#aE"/><use transform="matrix(0.0087890625,0,0,0.0087890625,28.7666015625,0)" xlink:href="#aK"/><use transform="matrix(0.0087890625,0,0,0.0087890625,39.0498046875,0)" xlink:href="#aH"/><use transform="matrix(0.0087890625,0,0,0.0087890625,49.693359375,0)" xlink:href="#aN"/><use transform="matrix(0.0087890625,0,0,0.0087890625,56.4697265625,0)" xlink:href="#aB"/></g><use transform="matrix(0.0087890625,0,0,0.0087890625,0,0)" xlink:href="#aE" id="j"/><g id="k"><use transform="matrix(0.0087890625,0,0,0.0087890625,0,0)" xlink:href="#aO"/><use transform="matrix(0.0087890625,0,0,0.0087890625,11.021484375,0)" xlink:href="#aG"/><use transform="matrix(0.0087890625,0,0,0.0087890625,20.5224609375,0)" xlink:href="#aL"/><use transform="matrix(0.0087890625,0,0,0.0087890625,24.8818359375,0)" xlink:href="#aK"/><use transform="matrix(0.0087890625,0,0,0.0087890625,35.1650390625,0)" xlink:href="#aM"/><use transform="matrix(0.0087890625,0,0,0.0087890625,45.9580078125,0)" xlink:href="#aI"/><use transform="matrix(0.0087890625,0,0,0.0087890625,50.3173828125,0)" xlink:href="#aE"/><use transform="matrix(0.0087890625,0,0,0.0087890625,61.1103515625,0)" xlink:href="#ax"/><use transform="matrix(0.0087890625,0,0,0.0087890625,72.1494140625,0)" xlink:href="#aE"/></g><g id="l"><use transform="matrix(0.0087890625,0,0,0.0087890625,0,0)" xlink:href="#aG"/><use transform="matrix(0.0087890625,0,0,0.0087890625,9.5009765625,0)" xlink:href="#aH"/><use transform="matrix(0.0087890625,0,0,0.0087890625,20.14453125,0)" xlink:href="#aB"/></g><path fill="#333" d="M678-1118v154H420V0H240v-964H20v-154h220v-149c0-194 155-293 318-293 85 0 141 18 168 30l-50 154c-19-6-47-17-97-17-111 0-159 58-159 166v109h258" id="aP"/><g id="m"><use transform="matrix(0.0087890625,0,0,0.0087890625,0,0)" xlink:href="#aO"/><use transform="matrix(0.0087890625,0,0,0.0087890625,11.021484375,0)" xlink:href="#aN"/><use transform="matrix(0.0087890625,0,0,0.0087890625,17.4990234375,0)" xlink:href="#ay"/><use transform="matrix(0.0087890625,0,0,0.0087890625,27.9931640625,0)" xlink:href="#aP"/><use transform="matrix(0.0087890625,0,0,0.0087890625,34.1279296875,0)" xlink:href="#ay"/><use transform="matrix(0.0087890625,0,0,0.0087890625,44.6220703125,0)" xlink:href="#aN"/><use transform="matrix(0.0087890625,0,0,0.0087890625,51.099609375,0)" xlink:href="#ay"/><use transform="matrix(0.0087890625,0,0,0.0087890625,61.59375,0)" xlink:href="#az"/><use transform="matrix(0.0087890625,0,0,0.0087890625,72.228515625,0)" xlink:href="#aK"/><use transform="matrix(0.0087890625,0,0,0.0087890625,82.51171875,0)" xlink:href="#aL"/><use transform="matrix(0.0087890625,0,0,0.0087890625,86.87109375,0)" xlink:href="#aB"/></g><path fill="#333" d="M677 24c-213 0-288-135-325-197h-20V0H158v-1490h180v551h14c37-59 106-193 324-193 279 0 474 222 474 576 0 356-194 580-473 580zm-27-161c209 0 317-186 317-421 0-232-105-413-317-413-206 0-314 166-314 413 0 249 111 421 314 421" id="aQ"/><g id="n"><use transform="matrix(0.0087890625,0,0,0.0087890625,0,0)" xlink:href="#aw"/><use transform="matrix(0.0087890625,0,0,0.0087890625,12.4189453125,0)" xlink:href="#aQ"/><use transform="matrix(0.0087890625,0,0,0.0087890625,23.4404296875,0)" xlink:href="#aN"/><use transform="matrix(0.0087890625,0,0,0.0087890625,29.91796875,0)" xlink:href="#ay"/></g><use transform="matrix(0.0087890625,0,0,0.0087890625,0,0)" xlink:href="#aB" id="o"/><g id="p"><use transform="matrix(0.0087890625,0,0,0.0087890625,0,0)" xlink:href="#aB"/><use transform="matrix(0.0087890625,0,0,0.0087890625,10.107421875,0)" xlink:href="#ax"/><use transform="matrix(0.0087890625,0,0,0.0087890625,21.146484375,0)" xlink:href="#ay"/><use transform="matrix(0.0087890625,0,0,0.0087890625,31.640625,0)" xlink:href="#az"/><use transform="matrix(0.0087890625,0,0,0.0087890625,42.275390625,0)" xlink:href="#aA"/><use transform="matrix(0.0087890625,0,0,0.0087890625,53.296875,0)" xlink:href="#aB"/></g><g id="q"><use transform="matrix(0.0087890625,0,0,0.0087890625,0,0)" xlink:href="#aA"/><use transform="matrix(0.0087890625,0,0,0.0087890625,11.021484375,0)" xlink:href="#aE"/></g><g id="r"><use transform="matrix(0.0087890625,0,0,0.0087890625,0,0)" xlink:href="#aO"/><use transform="matrix(0.0087890625,0,0,0.0087890625,11.021484375,0)" xlink:href="#aG"/><use transform="matrix(0.0087890625,0,0,0.0087890625,20.5224609375,0)" xlink:href="#aL"/><use transform="matrix(0.0087890625,0,0,0.0087890625,24.8818359375,0)" xlink:href="#aK"/><use transform="matrix(0.0087890625,0,0,0.0087890625,35.1650390625,0)" xlink:href="#aM"/><use transform="matrix(0.0087890625,0,0,0.0087890625,45.9580078125,0)" xlink:href="#aI"/><use transform="matrix(0.0087890625,0,0,0.0087890625,50.3173828125,0)" xlink:href="#aE"/><use transform="matrix(0.0087890625,0,0,0.0087890625,61.1103515625,0)" xlink:href="#ax"/><use transform="matrix(0.0087890625,0,0,0.0087890625,72.1494140625,0)" xlink:href="#aE"/></g><path fill="#333" d="M338-670V0H158v-1490h180v566c73-149 190-208 336-208 226 0 379 139 379 422V0H872v-695c0-172-96-275-252-275-161 0-282 109-282 300" id="aR"/><g id="s"><use transform="matrix(0.0087890625,0,0,0.0087890625,0,0)" xlink:href="#ay"/><use transform="matrix(0.0087890625,0,0,0.0087890625,10.494140625,0)" xlink:href="#aG"/><use transform="matrix(0.0087890625,0,0,0.0087890625,19.9951171875,0)" xlink:href="#aK"/><use transform="matrix(0.0087890625,0,0,0.0087890625,30.2783203125,0)" xlink:href="#aE"/><use transform="matrix(0.0087890625,0,0,0.0087890625,41.0712890625,0)" xlink:href="#aI"/><use transform="matrix(0.0087890625,0,0,0.0087890625,45.4306640625,0)" xlink:href="#aR"/><use transform="matrix(0.0087890625,0,0,0.0087890625,56.07421875,0)" xlink:href="#aL"/><use transform="matrix(0.0087890625,0,0,0.0087890625,60.43359375,0)" xlink:href="#aA"/><use transform="matrix(0.0087890625,0,0,0.0087890625,71.455078125,0)" xlink:href="#aE"/></g><path fill="#333" d="M180 0v-1490h270l367 940c28 72 75 218 110 339 35-117 81-264 110-339l362-940h271V0h-187c2-448-5-837 7-1287-157 497-311 829-483 1287H842C666-458 514-784 354-1284c12 438 5 843 7 1284H180" id="aS"/><g id="t"><use transform="matrix(0.0087890625,0,0,0.0087890625,0,0)" xlink:href="#aS"/><use transform="matrix(0.0087890625,0,0,0.0087890625,16.259765625,0)" xlink:href="#aB"/><use transform="matrix(0.0087890625,0,0,0.0087890625,26.3671875,0)" xlink:href="#aN"/><use transform="matrix(0.0087890625,0,0,0.0087890625,32.8447265625,0)" xlink:href="#aK"/><use transform="matrix(0.0087890625,0,0,0.0087890625,43.3037109375,0)" xlink:href="#aB"/></g><use transform="matrix(0.0087890625,0,0,0.0087890625,0,0)" xlink:href="#aE" id="u"/><g id="v"><use transform="matrix(0.0087890625,0,0,0.0087890625,0,0)" xlink:href="#aA"/><use transform="matrix(0.0087890625,0,0,0.0087890625,11.021484375,0)" xlink:href="#aL"/><use transform="matrix(0.0087890625,0,0,0.0087890625,15.380859375,0)" xlink:href="#aB"/></g><use transform="matrix(0.0087890625,0,0,0.0087890625,0,0)" xlink:href="#ay" id="w"/><path fill="#333" d="M471 26C259 26 90-98 90-318c0-256 228-303 435-329 202-27 287-16 287-108 0-139-79-219-234-219-161 0-248 86-283 164l-173-57c86-203 278-265 451-265 150 0 419 46 419 395V0H815v-152h-12C765-73 660 26 471 26zm31-159c199 0 310-134 310-271v-155c-30 35-226 55-295 64-131 17-246 59-246 186 0 116 97 176 231 176zm-23-1131l140-294h201l-194 294H479" id="aT"/><g id="x"><use transform="matrix(0.0087890625,0,0,0.0087890625,0,0)" xlink:href="#aR"/><use transform="matrix(0.0087890625,0,0,0.0087890625,10.6435546875,0)" xlink:href="#aE"/><use transform="matrix(0.0087890625,0,0,0.0087890625,21.4365234375,0)" xlink:href="#aN"/><use transform="matrix(0.0087890625,0,0,0.0087890625,28.212890625,0)" xlink:href="#aT"/><use transform="matrix(0.0087890625,0,0,0.0087890625,38.3203125,0)" xlink:href="#aN"/><use transform="matrix(0.0087890625,0,0,0.0087890625,45.3779296875,0)" xlink:href="#aL"/><use transform="matrix(0.0087890625,0,0,0.0087890625,49.7373046875,0)" xlink:href="#aE"/></g><g id="y"><use transform="matrix(0.0087890625,0,0,0.0087890625,0,0)" xlink:href="#aA"/><use transform="matrix(0.0087890625,0,0,0.0087890625,11.021484375,0)" xlink:href="#aB"/></g><g id="z"><use transform="matrix(0.0087890625,0,0,0.0087890625,0,0)" xlink:href="#aK"/><use transform="matrix(0.0087890625,0,0,0.0087890625,10.283203125,0)" xlink:href="#aE"/><use transform="matrix(0.0087890625,0,0,0.0087890625,21.076171875,0)" xlink:href="#az"/><use transform="matrix(0.0087890625,0,0,0.0087890625,31.7109375,0)" xlink:href="#aG"/><use transform="matrix(0.0087890625,0,0,0.0087890625,41.2119140625,0)" xlink:href="#aH"/><use transform="matrix(0.0087890625,0,0,0.0087890625,51.85546875,0)" xlink:href="#aI"/><use transform="matrix(0.0087890625,0,0,0.0087890625,56.478515625,0)" xlink:href="#aD"/><use transform="matrix(0.0087890625,0,0,0.0087890625,62.455078125,0)" xlink:href="#aB"/></g><g id="A"><use transform="matrix(0.0087890625,0,0,0.0087890625,0,0)" xlink:href="#aD"/><use transform="matrix(0.0087890625,0,0,0.0087890625,5.888671875,0)" xlink:href="#aN"/><use transform="matrix(0.0087890625,0,0,0.0087890625,12.6650390625,0)" xlink:href="#aB"/><use transform="matrix(0.0087890625,0,0,0.0087890625,22.7724609375,0)" xlink:href="#aQ"/><use transform="matrix(0.0087890625,0,0,0.0087890625,33.9697265625,0)" xlink:href="#aB"/><use transform="matrix(0.0087890625,0,0,0.0087890625,44.0771484375,0)" xlink:href="#aI"/><use transform="matrix(0.0087890625,0,0,0.0087890625,48.4365234375,0)" xlink:href="#aR"/><use transform="matrix(0.0087890625,0,0,0.0087890625,59.080078125,0)" xlink:href="#aB"/><use transform="matrix(0.0087890625,0,0,0.0087890625,69.1875,0)" xlink:href="#aN"/></g><path fill="#333" d="M789 20c-398 0-667-293-667-764 0-473 273-766 655-766 315 0 558 198 612 487h-196c-61-191-204-311-415-311-262 0-471 207-471 590 0 380 208 588 482 588 249 0 420-165 425-427H828v-166h572v163c0 370-256 606-611 606" id="aU"/><g id="B"><use transform="matrix(0.0087890625,0,0,0.0087890625,0,0)" xlink:href="#aU"/><use transform="matrix(0.0087890625,0,0,0.0087890625,13.4296875,0)" xlink:href="#ay"/><use transform="matrix(0.0087890625,0,0,0.0087890625,23.923828125,0)" xlink:href="#aN"/><use transform="matrix(0.0087890625,0,0,0.0087890625,30.4013671875,0)" xlink:href="#ay"/><use transform="matrix(0.0087890625,0,0,0.0087890625,40.8955078125,0)" xlink:href="#az"/><use transform="matrix(0.0087890625,0,0,0.0087890625,51.5302734375,0)" xlink:href="#aK"/><use transform="matrix(0.0087890625,0,0,0.0087890625,61.8134765625,0)" xlink:href="#aL"/><use transform="matrix(0.0087890625,0,0,0.0087890625,66.1728515625,0)" xlink:href="#aB"/></g><g id="C"><use transform="matrix(0.0087890625,0,0,0.0087890625,0,0)" xlink:href="#aR"/><use transform="matrix(0.0087890625,0,0,0.0087890625,10.6435546875,0)" xlink:href="#aE"/><use transform="matrix(0.0087890625,0,0,0.0087890625,21.4365234375,0)" xlink:href="#aN"/><use transform="matrix(0.0087890625,0,0,0.0087890625,28.212890625,0)" xlink:href="#aT"/><use transform="matrix(0.0087890625,0,0,0.0087890625,38.3203125,0)" xlink:href="#aN"/><use transform="matrix(0.0087890625,0,0,0.0087890625,45.3779296875,0)" xlink:href="#aL"/><use transform="matrix(0.0087890625,0,0,0.0087890625,49.7373046875,0)" xlink:href="#aE"/></g><g id="D"><use transform="matrix(0.0087890625,0,0,0.0087890625,0,0)" xlink:href="#aF"/><use transform="matrix(0.0087890625,0,0,0.0087890625,13.1484375,0)" xlink:href="#aE"/><use transform="matrix(0.0087890625,0,0,0.0087890625,23.94140625,0)" xlink:href="#az"/><use transform="matrix(0.0087890625,0,0,0.0087890625,34.576171875,0)" xlink:href="#aG"/><use transform="matrix(0.0087890625,0,0,0.0087890625,44.0771484375,0)" xlink:href="#ay"/><use transform="matrix(0.0087890625,0,0,0.0087890625,54.5712890625,0)" xlink:href="#ax"/><use transform="matrix(0.0087890625,0,0,0.0087890625,65.6103515625,0)" xlink:href="#aH"/><use transform="matrix(0.0087890625,0,0,0.0087890625,76.25390625,0)" xlink:href="#aL"/><use transform="matrix(0.0087890625,0,0,0.0087890625,80.61328125,0)" xlink:href="#aN"/><use transform="matrix(0.0087890625,0,0,0.0087890625,87.3896484375,0)" xlink:href="#aT"/></g><path fill="#333" d="M383-449c-3-277 82-343 222-425 88-53 156-134 156-250 0-139-108-227-243-227-118 0-235 70-246 236H82c10-251 200-395 436-395 259 0 427 165 427 393 0 161-74 273-203 352-132 80-180 132-178 316H383zm93 462c-75 0-135-60-135-134 0-75 60-135 135-135 74 0 134 60 134 135 0 74-60 134-134 134" id="aV"/><g id="E"><use transform="matrix(0.0087890625,0,0,0.0087890625,0,0)" xlink:href="#aK"/><use transform="matrix(0.0087890625,0,0,0.0087890625,10.283203125,0)" xlink:href="#aE"/><use transform="matrix(0.0087890625,0,0,0.0087890625,21.076171875,0)" xlink:href="#aC"/><use transform="matrix(0.0087890625,0,0,0.0087890625,36.84375,0)" xlink:href="#aO"/><use transform="matrix(0.0087890625,0,0,0.0087890625,48.041015625,0)" xlink:href="#aB"/><use transform="matrix(0.0087890625,0,0,0.0087890625,58.1484375,0)" xlink:href="#aN"/><use transform="matrix(0.0087890625,0,0,0.0087890625,64.6259765625,0)" xlink:href="#ay"/><use transform="matrix(0.0087890625,0,0,0.0087890625,75.1201171875,0)" xlink:href="#aK"/><use transform="matrix(0.0087890625,0,0,0.0087890625,85.4033203125,0)" xlink:href="#ay"/><use transform="matrix(0.0087890625,0,0,0.0087890625,95.8974609375,0)" xlink:href="#aN"/><use transform="matrix(0.0087890625,0,0,0.0087890625,102.673828125,0)" xlink:href="#aV"/></g><path fill="#333" d="M657 26c-323 0-524-166-541-416h195c15 169 171 246 346 246 202 0 356-106 356-265 5-203-294-238-475-293-239-73-380-191-380-389 0-252 224-419 512-419 294 0 499 171 508 396H992c-17-145-151-228-328-228-193 0-321 102-321 242 0 156 175 211 284 241l149 41c160 44 422 134 422 412 0 244-197 432-541 432" id="aW"/><g id="F"><use transform="matrix(0.0087890625,0,0,0.0087890625,0,0)" xlink:href="#aW"/><use transform="matrix(0.0087890625,0,0,0.0087890625,11.548828125,0)" xlink:href="#aL"/><use transform="matrix(0.0087890625,0,0,0.0087890625,15.908203125,0)" xlink:href="#aC"/></g><path fill="#333" d="M180 0v-1490h224l606 953c40 63 108 177 176 312-27-437-7-821-13-1265h190V0h-226C860-448 622-778 356-1262c27 476 11 792 15 1262H180" id="aX"/><path fill="#333" d="M471 26C259 26 90-98 90-318c0-256 228-303 435-329 202-27 287-16 287-108 0-139-79-219-234-219-161 0-248 86-283 164l-173-57c86-203 278-265 451-265 150 0 419 46 419 395V0H815v-152h-12C765-73 660 26 471 26zm31-159c199 0 310-134 310-271v-155c-30 35-226 55-295 64-131 17-246 59-246 186 0 116 97 176 231 176zm187-1180c-99 0-192-83-243-83-35 0-51 40-53 79H267c4-120 55-208 162-208 104 0 174 85 241 85 33 0 49-23 56-81h123c-4 126-62 208-160 208" id="aY"/><g id="G"><use transform="matrix(0.0087890625,0,0,0.0087890625,0,0)" xlink:href="#aX"/><use transform="matrix(0.0087890625,0,0,0.0087890625,13.5615234375,0)" xlink:href="#aY"/><use transform="matrix(0.0087890625,0,0,0.0087890625,23.6689453125,0)" xlink:href="#aE"/></g><g id="H"><use transform="matrix(0.0087890625,0,0,0.0087890625,0,0)" xlink:href="#aF"/><use transform="matrix(0.0087890625,0,0,0.0087890625,13.1484375,0)" xlink:href="#aB"/><use transform="matrix(0.0087890625,0,0,0.0087890625,23.255859375,0)" xlink:href="#az"/><use transform="matrix(0.0087890625,0,0,0.0087890625,33.890625,0)" xlink:href="#aK"/><use transform="matrix(0.0087890625,0,0,0.0087890625,44.173828125,0)" xlink:href="#ay"/><use transform="matrix(0.0087890625,0,0,0.0087890625,54.66796875,0)" xlink:href="#aI"/><use transform="matrix(0.0087890625,0,0,0.0087890625,59.02734375,0)" xlink:href="#aB"/><use transform="matrix(0.0087890625,0,0,0.0087890625,69.134765625,0)" xlink:href="#aN"/></g><path fill="#333" d="M645 0H180v-1490h484c435 0 692 280 692 742 0 466-257 748-711 748zM370-168h263c363 0 539-218 539-580 0-358-176-574-521-574H370v1154" id="aZ"/><g id="I"><use transform="matrix(0.0087890625,0,0,0.0087890625,0,0)" xlink:href="#aZ"/><use transform="matrix(0.0087890625,0,0,0.0087890625,12.990234375,0)" xlink:href="#aL"/><use transform="matrix(0.0087890625,0,0,0.0087890625,17.349609375,0)" xlink:href="#aB"/></g><g id="J"><use transform="matrix(0.0087890625,0,0,0.0087890625,0,0)" xlink:href="#aJ"/><use transform="matrix(0.0087890625,0,0,0.0087890625,11.49609375,0)" xlink:href="#aB"/><use transform="matrix(0.0087890625,0,0,0.0087890625,21.603515625,0)" xlink:href="#aN"/><use transform="matrix(0.0087890625,0,0,0.0087890625,28.6611328125,0)" xlink:href="#aD"/><use transform="matrix(0.0087890625,0,0,0.0087890625,34.5498046875,0)" xlink:href="#aL"/><use transform="matrix(0.0087890625,0,0,0.0087890625,38.9091796875,0)" xlink:href="#aK"/><use transform="matrix(0.0087890625,0,0,0.0087890625,49.1923828125,0)" xlink:href="#aL"/><use transform="matrix(0.0087890625,0,0,0.0087890625,53.5517578125,0)" xlink:href="#aO"/><use transform="matrix(0.0087890625,0,0,0.0087890625,64.7490234375,0)" xlink:href="#aB"/></g><path fill="#333" d="M370-1490V0H180v-1490h190" id="ba"/><g id="K"><use transform="matrix(0.0087890625,0,0,0.0087890625,0,0)" xlink:href="#aW"/><use transform="matrix(0.0087890625,0,0,0.0087890625,11.548828125,0)" xlink:href="#ba"/><use transform="matrix(0.0087890625,0,0,0.0087890625,16.3828125,0)" xlink:href="#aC"/></g><path fill="#333" d="M157-1118h181V80c1 225-123 350-364 338V252c126 9 184-48 183-172v-1198zm91-183c-68 0-125-53-125-119s57-119 125-119c69 0 126 53 126 119s-57 119-126 119" id="bb"/><g id="L"><use transform="matrix(0.0087890625,0,0,0.0087890625,0,0)" xlink:href="#aZ"/><use transform="matrix(0.0087890625,0,0,0.0087890625,12.990234375,0)" xlink:href="#ay"/><use transform="matrix(0.0087890625,0,0,0.0087890625,23.484375,0)" xlink:href="#aG"/><use transform="matrix(0.0087890625,0,0,0.0087890625,32.9853515625,0)" xlink:href="#ay"/><use transform="matrix(0.0087890625,0,0,0.0087890625,43.4794921875,0)" xlink:href="#bb"/><use transform="matrix(0.0087890625,0,0,0.0087890625,47.8388671875,0)" xlink:href="#aB"/></g><g id="M"><use transform="matrix(0.0087890625,0,0,0.0087890625,0,0)" xlink:href="#aN"/><use transform="matrix(0.0087890625,0,0,0.0087890625,6.4775390625,0)" xlink:href="#ay"/><use transform="matrix(0.0087890625,0,0,0.0087890625,16.9716796875,0)" xlink:href="#aC"/><use transform="matrix(0.0087890625,0,0,0.0087890625,32.7392578125,0)" xlink:href="#aB"/><use transform="matrix(0.0087890625,0,0,0.0087890625,42.8466796875,0)" xlink:href="#aN"/><use transform="matrix(0.0087890625,0,0,0.0087890625,49.32421875,0)" xlink:href="#aK"/><use transform="matrix(0.0087890625,0,0,0.0087890625,59.783203125,0)" xlink:href="#aB"/><use transform="matrix(0.0087890625,0,0,0.0087890625,69.890625,0)" xlink:href="#aN"/><use transform="matrix(0.0087890625,0,0,0.0087890625,76.6669921875,0)" xlink:href="#aV"/></g><path fill="#333" d="M180 0v-1490h901v168H370v510h643v168H370V0H180" id="bc"/><g id="N"><use transform="matrix(0.0087890625,0,0,0.0087890625,0,0)" xlink:href="#bc"/><use transform="matrix(0.0087890625,0,0,0.0087890625,10.6259765625,0)" xlink:href="#aL"/><use transform="matrix(0.0087890625,0,0,0.0087890625,14.9853515625,0)" xlink:href="#aC"/></g><g id="O"><use transform="matrix(0.0087890625,0,0,0.0087890625,0,0)" xlink:href="#aw"/><use transform="matrix(0.0087890625,0,0,0.0087890625,12.4189453125,0)" xlink:href="#aA"/><use transform="matrix(0.0087890625,0,0,0.0087890625,23.4404296875,0)" xlink:href="#aL"/><use transform="matrix(0.0087890625,0,0,0.0087890625,27.7998046875,0)" xlink:href="#aK"/><use transform="matrix(0.0087890625,0,0,0.0087890625,38.0830078125,0)" xlink:href="#aL"/><use transform="matrix(0.0087890625,0,0,0.0087890625,42.4423828125,0)" xlink:href="#aE"/><use transform="matrix(0.0087890625,0,0,0.0087890625,53.2353515625,0)" xlink:href="#az"/><use transform="matrix(0.0087890625,0,0,0.0087890625,63.8701171875,0)" xlink:href="#aB"/><use transform="matrix(0.0087890625,0,0,0.0087890625,73.9775390625,0)" xlink:href="#aN"/></g><g id="P"><use transform="matrix(0.0087890625,0,0,0.0087890625,0,0)" xlink:href="#aw"/><use transform="matrix(0.0087890625,0,0,0.0087890625,12.4189453125,0)" xlink:href="#aO"/><use transform="matrix(0.0087890625,0,0,0.0087890625,23.6162109375,0)" xlink:href="#aB"/><use transform="matrix(0.0087890625,0,0,0.0087890625,33.7236328125,0)" xlink:href="#ax"/><use transform="matrix(0.0087890625,0,0,0.0087890625,44.7626953125,0)" xlink:href="#aB"/><use transform="matrix(0.0087890625,0,0,0.0087890625,54.8701171875,0)" xlink:href="#aN"/></g><g id="Q"><use transform="matrix(0.0087890625,0,0,0.0087890625,0,0)" xlink:href="#aw"/><use transform="matrix(0.0087890625,0,0,0.0087890625,12.4189453125,0)" xlink:href="#aA"/><use transform="matrix(0.0087890625,0,0,0.0087890625,23.4404296875,0)" xlink:href="#aL"/><use transform="matrix(0.0087890625,0,0,0.0087890625,27.7998046875,0)" xlink:href="#aK"/><use transform="matrix(0.0087890625,0,0,0.0087890625,38.0830078125,0)" xlink:href="#aL"/><use transform="matrix(0.0087890625,0,0,0.0087890625,42.4423828125,0)" xlink:href="#aE"/><use transform="matrix(0.0087890625,0,0,0.0087890625,53.2353515625,0)" xlink:href="#az"/><use transform="matrix(0.0087890625,0,0,0.0087890625,63.8701171875,0)" xlink:href="#aB"/><use transform="matrix(0.0087890625,0,0,0.0087890625,73.9775390625,0)" xlink:href="#aN"/></g><g id="R"><use transform="matrix(0.0087890625,0,0,0.0087890625,0,0)" xlink:href="#aE"/><use transform="matrix(0.0087890625,0,0,0.0087890625,10.79296875,0)" xlink:href="#aH"/></g><g id="S"><use transform="matrix(0.0087890625,0,0,0.0087890625,0,0)" xlink:href="#aB"/><use transform="matrix(0.0087890625,0,0,0.0087890625,10.107421875,0)" xlink:href="#aO"/><use transform="matrix(0.0087890625,0,0,0.0087890625,21.3046875,0)" xlink:href="#aB"/><use transform="matrix(0.0087890625,0,0,0.0087890625,31.412109375,0)" xlink:href="#ax"/><use transform="matrix(0.0087890625,0,0,0.0087890625,42.451171875,0)" xlink:href="#aB"/><use transform="matrix(0.0087890625,0,0,0.0087890625,52.55859375,0)" xlink:href="#aN"/><use transform="matrix(0.0087890625,0,0,0.0087890625,59.3349609375,0)" xlink:href="#aV"/></g><path fill="#333" d="M180 0v-1490h190v644h782v-644h190V0h-190v-678H370V0H180" id="bd"/><g id="T"><use transform="matrix(0.0087890625,0,0,0.0087890625,0,0)" xlink:href="#bd"/><use transform="matrix(0.0087890625,0,0,0.0087890625,13.376953125,0)" xlink:href="#aE"/><use transform="matrix(0.0087890625,0,0,0.0087890625,24.169921875,0)" xlink:href="#aN"/><use transform="matrix(0.0087890625,0,0,0.0087890625,30.9462890625,0)" xlink:href="#aT"/><use transform="matrix(0.0087890625,0,0,0.0087890625,41.0537109375,0)" xlink:href="#aN"/><use transform="matrix(0.0087890625,0,0,0.0087890625,48.111328125,0)" xlink:href="#aL"/><use transform="matrix(0.0087890625,0,0,0.0087890625,52.470703125,0)" xlink:href="#aE"/></g><path fill="#333" d="M481 0L54-1118h197c107 314 236 620 325 951 87-331 217-637 324-951h197L670 0H481" id="be"/><g id="U"><use transform="matrix(0.0087890625,0,0,0.0087890625,0,0)" xlink:href="#aB"/><use transform="matrix(0.0087890625,0,0,0.0087890625,9.84375,0)" xlink:href="#be"/><use transform="matrix(0.0087890625,0,0,0.0087890625,19.9599609375,0)" xlink:href="#aH"/><use transform="matrix(0.0087890625,0,0,0.0087890625,30.603515625,0)" xlink:href="#aI"/><use transform="matrix(0.0087890625,0,0,0.0087890625,34.962890625,0)" xlink:href="#aG"/><use transform="matrix(0.0087890625,0,0,0.0087890625,44.4638671875,0)" xlink:href="#aE"/></g><g id="V"><use transform="matrix(0.0087890625,0,0,0.0087890625,0,0)" xlink:href="#aw"/><use transform="matrix(0.0087890625,0,0,0.0087890625,12.4189453125,0)" xlink:href="#aA"/><use transform="matrix(0.0087890625,0,0,0.0087890625,23.4404296875,0)" xlink:href="#aL"/><use transform="matrix(0.0087890625,0,0,0.0087890625,27.7998046875,0)" xlink:href="#aK"/><use transform="matrix(0.0087890625,0,0,0.0087890625,38.0830078125,0)" xlink:href="#aL"/><use transform="matrix(0.0087890625,0,0,0.0087890625,42.4423828125,0)" xlink:href="#aE"/><use transform="matrix(0.0087890625,0,0,0.0087890625,53.2353515625,0)" xlink:href="#az"/><use transform="matrix(0.0087890625,0,0,0.0087890625,63.8701171875,0)" xlink:href="#aB"/></g><g id="W"><use transform="matrix(0.0087890625,0,0,0.0087890625,0,0)" xlink:href="#aR"/><use transform="matrix(0.0087890625,0,0,0.0087890625,10.6435546875,0)" xlink:href="#aE"/><use transform="matrix(0.0087890625,0,0,0.0087890625,21.4365234375,0)" xlink:href="#aN"/><use transform="matrix(0.0087890625,0,0,0.0087890625,28.212890625,0)" xlink:href="#aT"/><use transform="matrix(0.0087890625,0,0,0.0087890625,38.3203125,0)" xlink:href="#aN"/><use transform="matrix(0.0087890625,0,0,0.0087890625,45.3779296875,0)" xlink:href="#aL"/><use transform="matrix(0.0087890625,0,0,0.0087890625,49.7373046875,0)" xlink:href="#aE"/></g><g id="X"><use transform="matrix(0.0087890625,0,0,0.0087890625,0,0)" xlink:href="#aB"/><use transform="matrix(0.0087890625,0,0,0.0087890625,9.84375,0)" xlink:href="#be"/><use transform="matrix(0.0087890625,0,0,0.0087890625,19.9599609375,0)" xlink:href="#aH"/><use transform="matrix(0.0087890625,0,0,0.0087890625,30.603515625,0)" xlink:href="#aI"/><use transform="matrix(0.0087890625,0,0,0.0087890625,34.962890625,0)" xlink:href="#aG"/><use transform="matrix(0.0087890625,0,0,0.0087890625,44.4638671875,0)" xlink:href="#aE"/></g><path fill="#333" d="M180 0v-1490h528c311 0 458 177 458 395 0 191-114 278-244 313v14c139 9 302 137 302 371 0 225-148 397-499 397H180zm190-168h350c232 0 321-102 321-231 0-149-120-277-311-277H370v508zm0-668h328c160 0 286-101 286-255 0-129-87-231-280-231H370v486" id="bf"/><g id="Y"><use transform="matrix(0.0087890625,0,0,0.0087890625,0,0)" xlink:href="#bf"/><use transform="matrix(0.0087890625,0,0,0.0087890625,11.77734375,0)" xlink:href="#aI"/><use transform="matrix(0.0087890625,0,0,0.0087890625,16.13671875,0)" xlink:href="#aE"/><use transform="matrix(0.0087890625,0,0,0.0087890625,26.9296875,0)" xlink:href="#aK"/><use transform="matrix(0.0087890625,0,0,0.0087890625,37.212890625,0)" xlink:href="#aE"/></g><g id="Z"><use transform="matrix(0.0087890625,0,0,0.0087890625,0,0)" xlink:href="#aN"/><use transform="matrix(0.0087890625,0,0,0.0087890625,6.4775390625,0)" xlink:href="#ay"/><use transform="matrix(0.0087890625,0,0,0.0087890625,16.9716796875,0)" xlink:href="#aK"/><use transform="matrix(0.0087890625,0,0,0.0087890625,27.2548828125,0)" xlink:href="#aE"/><use transform="matrix(0.0087890625,0,0,0.0087890625,38.0478515625,0)" xlink:href="#aN"/><use transform="matrix(0.0087890625,0,0,0.0087890625,45.10546875,0)" xlink:href="#aN"/><use transform="matrix(0.0087890625,0,0,0.0087890625,51.5830078125,0)" xlink:href="#ay"/><use transform="matrix(0.0087890625,0,0,0.0087890625,62.0771484375,0)" xlink:href="#az"/><use transform="matrix(0.0087890625,0,0,0.0087890625,72.7119140625,0)" xlink:href="#aD"/><use transform="matrix(0.0087890625,0,0,0.0087890625,78.4248046875,0)" xlink:href="#ay"/></g><g id="aa"><use transform="matrix(0.0087890625,0,0,0.0087890625,0,0)" xlink:href="#aZ"/><use transform="matrix(0.0087890625,0,0,0.0087890625,12.990234375,0)" xlink:href="#ay"/><use transform="matrix(0.0087890625,0,0,0.0087890625,23.484375,0)" xlink:href="#aP"/><use transform="matrix(0.0087890625,0,0,0.0087890625,30.146484375,0)" xlink:href="#aL"/><use transform="matrix(0.0087890625,0,0,0.0087890625,34.505859375,0)" xlink:href="#az"/><use transform="matrix(0.0087890625,0,0,0.0087890625,45.140625,0)" xlink:href="#ay"/></g><g id="ab"><use transform="matrix(0.0087890625,0,0,0.0087890625,0,0)" xlink:href="#aQ"/><use transform="matrix(0.0087890625,0,0,0.0087890625,11.021484375,0)" xlink:href="#aI"/><use transform="matrix(0.0087890625,0,0,0.0087890625,15.380859375,0)" xlink:href="#aE"/><use transform="matrix(0.0087890625,0,0,0.0087890625,26.173828125,0)" xlink:href="#aK"/><use transform="matrix(0.0087890625,0,0,0.0087890625,36.45703125,0)" xlink:href="#aE"/></g><g id="ac"><use transform="matrix(0.0087890625,0,0,0.0087890625,0,0)" xlink:href="#aR"/><use transform="matrix(0.0087890625,0,0,0.0087890625,10.6435546875,0)" xlink:href="#aE"/><use transform="matrix(0.0087890625,0,0,0.0087890625,21.4365234375,0)" xlink:href="#aN"/><use transform="matrix(0.0087890625,0,0,0.0087890625,28.212890625,0)" xlink:href="#aT"/><use transform="matrix(0.0087890625,0,0,0.0087890625,38.3203125,0)" xlink:href="#aN"/><use transform="matrix(0.0087890625,0,0,0.0087890625,45.3779296875,0)" xlink:href="#aL"/><use transform="matrix(0.0087890625,0,0,0.0087890625,49.7373046875,0)" xlink:href="#aE"/><use transform="matrix(0.0087890625,0,0,0.0087890625,60.5302734375,0)" xlink:href="#aG"/></g><path fill="#333" d="M65 0l393-574-370-544h210c88 136 192 297 267 435 67-142 176-302 264-435h206L661-564 1053 0H844c-94-144-206-310-287-458C484-308 366-142 273 0H65" id="bg"/><g id="ad"><use transform="matrix(0.0087890625,0,0,0.0087890625,0,0)" xlink:href="#aP"/><use transform="matrix(0.0087890625,0,0,0.0087890625,6.662109375,0)" xlink:href="#aL"/><use transform="matrix(0.0087890625,0,0,0.0087890625,11.021484375,0)" xlink:href="#bg"/><use transform="matrix(0.0087890625,0,0,0.0087890625,20.443359375,0)" xlink:href="#aE"/></g><g id="ae"><use transform="matrix(0.0087890625,0,0,0.0087890625,0,0)" xlink:href="#aS"/><use transform="matrix(0.0087890625,0,0,0.0087890625,16.259765625,0)" xlink:href="#aE"/><use transform="matrix(0.0087890625,0,0,0.0087890625,27.052734375,0)" xlink:href="#aA"/><use transform="matrix(0.0087890625,0,0,0.0087890625,38.07421875,0)" xlink:href="#aE"/></g><g id="af"><use transform="matrix(0.0087890625,0,0,0.0087890625,0,0)" xlink:href="#aA"/><use transform="matrix(0.0087890625,0,0,0.0087890625,11.021484375,0)" xlink:href="#ay"/></g><g id="ag"><use transform="matrix(0.0087890625,0,0,0.0087890625,0,0)" xlink:href="#aK"/><use transform="matrix(0.0087890625,0,0,0.0087890625,10.458984375,0)" xlink:href="#aB"/><use transform="matrix(0.0087890625,0,0,0.0087890625,20.56640625,0)" xlink:href="#aA"/><use transform="matrix(0.0087890625,0,0,0.0087890625,31.587890625,0)" xlink:href="#aB"/><use transform="matrix(0.0087890625,0,0,0.0087890625,41.6953125,0)" xlink:href="#aG"/><use transform="matrix(0.0087890625,0,0,0.0087890625,51.1962890625,0)" xlink:href="#aD"/><use transform="matrix(0.0087890625,0,0,0.0087890625,57.0849609375,0)" xlink:href="#aN"/><use transform="matrix(0.0087890625,0,0,0.0087890625,63.5625,0)" xlink:href="#aE"/></g><g id="ah"><use transform="matrix(0.0087890625,0,0,0.0087890625,0,0)" xlink:href="#aJ"/><use transform="matrix(0.0087890625,0,0,0.0087890625,11.49609375,0)" xlink:href="#aB"/><use transform="matrix(0.0087890625,0,0,0.0087890625,21.603515625,0)" xlink:href="#aK"/><use transform="matrix(0.0087890625,0,0,0.0087890625,31.88671875,0)" xlink:href="#aL"/><use transform="matrix(0.0087890625,0,0,0.0087890625,36.24609375,0)" xlink:href="#ay"/><use transform="matrix(0.0087890625,0,0,0.0087890625,46.740234375,0)" xlink:href="#az"/><use transform="matrix(0.0087890625,0,0,0.0087890625,57.375,0)" xlink:href="#aD"/><use transform="matrix(0.0087890625,0,0,0.0087890625,63.087890625,0)" xlink:href="#ay"/></g><g id="ai"><use transform="matrix(0.0087890625,0,0,0.0087890625,0,0)" xlink:href="#aB"/><use transform="matrix(0.0087890625,0,0,0.0087890625,10.107421875,0)" xlink:href="#ax"/><use transform="matrix(0.0087890625,0,0,0.0087890625,21.146484375,0)" xlink:href="#ay"/><use transform="matrix(0.0087890625,0,0,0.0087890625,31.640625,0)" xlink:href="#az"/><use transform="matrix(0.0087890625,0,0,0.0087890625,42.275390625,0)" xlink:href="#aA"/><use transform="matrix(0.0087890625,0,0,0.0087890625,53.296875,0)" xlink:href="#aB"/><use transform="matrix(0.0087890625,0,0,0.0087890625,63.404296875,0)" xlink:href="#aA"/><use transform="matrix(0.0087890625,0,0,0.0087890625,74.42578125,0)" xlink:href="#aE"/><use transform="matrix(0.0087890625,0,0,0.0087890625,85.21875,0)" xlink:href="#aV"/></g><path fill="#333" d="M471 26C259 26 90-98 90-318c0-256 228-303 435-329 202-27 287-16 287-108 0-139-79-219-234-219-161 0-248 86-283 164l-173-57c86-203 278-265 451-265 150 0 419 46 419 395V0H815v-152h-12C765-73 660 26 471 26zm31-159c199 0 310-134 310-271v-155c-30 35-226 55-295 64-131 17-246 59-246 186 0 116 97 176 231 176zm-88-1149H237v-9l235-267h171l236 267v9H700l-142-175" id="bh"/><g id="aj"><use transform="matrix(0.0087890625,0,0,0.0087890625,0,0)" xlink:href="#aX"/><use transform="matrix(0.0087890625,0,0,0.0087890625,13.5615234375,0)" xlink:href="#bh"/><use transform="matrix(0.0087890625,0,0,0.0087890625,23.6689453125,0)" xlink:href="#aE"/></g><g id="ak"><use transform="matrix(0.0087890625,0,0,0.0087890625,0,0)" xlink:href="#aw"/><use transform="matrix(0.0087890625,0,0,0.0087890625,12.4189453125,0)" xlink:href="#aO"/><use transform="matrix(0.0087890625,0,0,0.0087890625,23.6162109375,0)" xlink:href="#aB"/><use transform="matrix(0.0087890625,0,0,0.0087890625,33.7236328125,0)" xlink:href="#ax"/><use transform="matrix(0.0087890625,0,0,0.0087890625,44.7626953125,0)" xlink:href="#aB"/><use transform="matrix(0.0087890625,0,0,0.0087890625,54.8701171875,0)" xlink:href="#aN"/></g><g id="al"><use transform="matrix(0.0087890625,0,0,0.0087890625,0,0)" xlink:href="#aR"/><use transform="matrix(0.0087890625,0,0,0.0087890625,10.6435546875,0)" xlink:href="#aE"/><use transform="matrix(0.0087890625,0,0,0.0087890625,21.4365234375,0)" xlink:href="#aN"/><use transform="matrix(0.0087890625,0,0,0.0087890625,28.212890625,0)" xlink:href="#aB"/><use transform="matrix(0.0087890625,0,0,0.0087890625,38.3203125,0)" xlink:href="#aN"/><use transform="matrix(0.0087890625,0,0,0.0087890625,45.3779296875,0)" xlink:href="#aL"/><use transform="matrix(0.0087890625,0,0,0.0087890625,49.7373046875,0)" xlink:href="#aE"/></g><g id="am"><use transform="matrix(0.0087890625,0,0,0.0087890625,0,0)" xlink:href="#aR"/><use transform="matrix(0.0087890625,0,0,0.0087890625,10.6435546875,0)" xlink:href="#aE"/><use transform="matrix(0.0087890625,0,0,0.0087890625,21.4365234375,0)" xlink:href="#aN"/><use transform="matrix(0.0087890625,0,0,0.0087890625,28.212890625,0)" xlink:href="#aB"/><use transform="matrix(0.0087890625,0,0,0.0087890625,38.3203125,0)" xlink:href="#aN"/><use transform="matrix(0.0087890625,0,0,0.0087890625,45.3779296875,0)" xlink:href="#aL"/><use transform="matrix(0.0087890625,0,0,0.0087890625,49.7373046875,0)" xlink:href="#aE"/></g><g id="an"><use transform="matrix(0.0087890625,0,0,0.0087890625,0,0)" xlink:href="#aN"/><use transform="matrix(0.0087890625,0,0,0.0087890625,6.4775390625,0)" xlink:href="#ay"/><use transform="matrix(0.0087890625,0,0,0.0087890625,17.1474609375,0)" xlink:href="#aB"/><use transform="matrix(0.0087890625,0,0,0.0087890625,27.2548828125,0)" xlink:href="#ax"/><use transform="matrix(0.0087890625,0,0,0.0087890625,38.2939453125,0)" xlink:href="#ay"/><use transform="matrix(0.0087890625,0,0,0.0087890625,48.7880859375,0)" xlink:href="#az"/><use transform="matrix(0.0087890625,0,0,0.0087890625,59.4228515625,0)" xlink:href="#aA"/><use transform="matrix(0.0087890625,0,0,0.0087890625,70.4443359375,0)" xlink:href="#aB"/><use transform="matrix(0.0087890625,0,0,0.0087890625,80.5517578125,0)" xlink:href="#aN"/></g><g id="ao"><use transform="matrix(0.0087890625,0,0,0.0087890625,0,0)" xlink:href="#aw"/><use transform="matrix(0.0087890625,0,0,0.0087890625,12.4189453125,0)" xlink:href="#ax"/><use transform="matrix(0.0087890625,0,0,0.0087890625,23.4580078125,0)" xlink:href="#aH"/><use transform="matrix(0.0087890625,0,0,0.0087890625,34.1015625,0)" xlink:href="#aB"/><use transform="matrix(0.0087890625,0,0,0.0087890625,44.208984375,0)" xlink:href="#aN"/><use transform="matrix(0.0087890625,0,0,0.0087890625,50.6865234375,0)" xlink:href="#aA"/><use transform="matrix(0.0087890625,0,0,0.0087890625,61.7080078125,0)" xlink:href="#aB"/></g><g id="ap"><use transform="matrix(0.0087890625,0,0,0.0087890625,0,0)" xlink:href="#aH"/><use transform="matrix(0.0087890625,0,0,0.0087890625,10.6435546875,0)" xlink:href="#aC"/></g><g id="aq"><use transform="matrix(0.0087890625,0,0,0.0087890625,0,0)" xlink:href="#aR"/><use transform="matrix(0.0087890625,0,0,0.0087890625,10.6435546875,0)" xlink:href="#aE"/><use transform="matrix(0.0087890625,0,0,0.0087890625,21.4365234375,0)" xlink:href="#aN"/><use transform="matrix(0.0087890625,0,0,0.0087890625,28.212890625,0)" xlink:href="#aB"/><use transform="matrix(0.0087890625,0,0,0.0087890625,38.3203125,0)" xlink:href="#aN"/><use transform="matrix(0.0087890625,0,0,0.0087890625,45.3779296875,0)" xlink:href="#aL"/><use transform="matrix(0.0087890625,0,0,0.0087890625,49.7373046875,0)" xlink:href="#aE"/></g><g id="ar"><use transform="matrix(0.0087890625,0,0,0.0087890625,0,0)" xlink:href="#aK"/><use transform="matrix(0.0087890625,0,0,0.0087890625,10.283203125,0)" xlink:href="#aE"/><use transform="matrix(0.0087890625,0,0,0.0087890625,21.076171875,0)" xlink:href="#aC"/></g><g id="as"><use transform="matrix(0.0087890625,0,0,0.0087890625,0,0)" xlink:href="#aB"/><use transform="matrix(0.0087890625,0,0,0.0087890625,10.107421875,0)" xlink:href="#aI"/><use transform="matrix(0.0087890625,0,0,0.0087890625,14.466796875,0)" xlink:href="#ax"/><use transform="matrix(0.0087890625,0,0,0.0087890625,25.505859375,0)" xlink:href="#aH"/><use transform="matrix(0.0087890625,0,0,0.0087890625,36.1494140625,0)" xlink:href="#aC"/></g><g id="at"><use transform="matrix(0.0087890625,0,0,0.0087890625,0,0)" xlink:href="#aO"/><use transform="matrix(0.0087890625,0,0,0.0087890625,11.197265625,0)" xlink:href="#aB"/><use transform="matrix(0.0087890625,0,0,0.0087890625,21.3046875,0)" xlink:href="#aK"/><use transform="matrix(0.0087890625,0,0,0.0087890625,31.587890625,0)" xlink:href="#aL"/><use transform="matrix(0.0087890625,0,0,0.0087890625,35.947265625,0)" xlink:href="#ay"/><use transform="matrix(0.0087890625,0,0,0.0087890625,46.44140625,0)" xlink:href="#az"/><use transform="matrix(0.0087890625,0,0,0.0087890625,57.076171875,0)" xlink:href="#aD"/><use transform="matrix(0.0087890625,0,0,0.0087890625,62.7890625,0)" xlink:href="#ay"/></g><path fill="#333" d="M180 0v-1490h510c348 0 508 194 508 460 0 198-88 351-276 417L1256 0h-220L726-579c-117 2-238 0-356 1V0H180zm190-747h312c235 0 327-108 327-283 0-177-92-293-329-293H370v576" id="bi"/><path fill="#333" d="M126 0v-134l627-806v-11H146v-167h839v143L376-178v11h629V0H126" id="bj"/><g id="au"><use transform="matrix(0.0087890625,0,0,0.0087890625,0,0)" xlink:href="#bi"/><use transform="matrix(0.0087890625,0,0,0.0087890625,11.3203125,0)" xlink:href="#ay"/><use transform="matrix(0.0087890625,0,0,0.0087890625,21.990234375,0)" xlink:href="#aB"/><use transform="matrix(0.0087890625,0,0,0.0087890625,32.09765625,0)" xlink:href="#aI"/><use transform="matrix(0.0087890625,0,0,0.0087890625,36.45703125,0)" xlink:href="#aL"/><use transform="matrix(0.0087890625,0,0,0.0087890625,40.81640625,0)" xlink:href="#bj"/><use transform="matrix(0.0087890625,0,0,0.0087890625,50.7568359375,0)" xlink:href="#aB"/></g><g id="av"><use transform="matrix(0.0087890625,0,0,0.0087890625,0,0)" xlink:href="#bc"/><use transform="matrix(0.0087890625,0,0,0.0087890625,10.6259765625,0)" xlink:href="#ba"/><use transform="matrix(0.0087890625,0,0,0.0087890625,15.4599609375,0)" xlink:href="#aC"/></g></defs></g></svg>
